{
	"asset":{
		"generator":"Khronos glTF Blender I/O v3.5.30",
		"version":"2.0"
	},
	"scene":0,
	"scenes":[
		{
			"name":"Scene",
			"nodes":[
				0
			]
		}
	],
	"nodes":[
		{
			"mesh":0,
			"name":"mesh",
			"rotation":[
				0.7071068286895752,
				0,
				0,
				0.7071068286895752
			]
		}
	],
	"materials":[
		{
			"doubleSided":true,
			"name":"base_material",
			"pbrMetallicRoughness":{
				"baseColorTexture":{
					"index":0
				},
				"metallicRoughnessTexture":{
					"index":1
				}
			}
		}
	],
	"meshes":[
		{
			"name":"mesh",
			"primitives":[
				{
					"attributes":{
						"POSITION":0,
						"TEXCOORD_0":1,
						"NORMAL":2
					},
					"indices":3,
					"material":0
				}
			]
		}
	],
	"textures":[
		{
			"sampler":0,
			"source":0
		},
		{
			"sampler":0,
			"source":1
		}
	],
	"images":[
		{
			"bufferView":4,
			"mimeType":"image/jpeg",
			"name":"drone_diffuse"
		},
		{
			"bufferView":5,
			"mimeType":"image/png",
			"name":"drone_metallic-drone_roughness"
		}
	],
	"accessors":[
		{
			"bufferView":0,
			"componentType":5126,
			"count":17118,
			"max":[
				0.4945580065250397,
				0.5014569759368896,
				0.2511709928512573
			],
			"min":[
				-0.5034139752388,
				-0.4921939969062805,
				-0.22707900404930115
			],
			"type":"VEC3"
		},
		{
			"bufferView":1,
			"componentType":5126,
			"count":17118,
			"type":"VEC2"
		},
		{
			"bufferView":2,
			"componentType":5126,
			"count":17118,
			"type":"VEC3"
		},
		{
			"bufferView":3,
			"componentType":5123,
			"count":82704,
			"type":"SCALAR"
		}
	],
	"bufferViews":[
		{
			"buffer":0,
			"byteLength":205416,
			"byteOffset":0,
			"target":34962
		},
		{
			"buffer":0,
			"byteLength":136944,
			"byteOffset":205416,
			"target":34962
		},
		{
			"buffer":0,
			"byteLength":205416,
			"byteOffset":342360,
			"target":34962
		},
		{
			"buffer":0,
			"byteLength":165408,
			"byteOffset":547776,
			"target":34963
		},
		{
			"buffer":0,
			"byteLength":301307,
			"byteOffset":713184
		},
		{
			"buffer":0,
			"byteLength":59418,
			"byteOffset":1014492
		}
	],
	"samplers":[
		{
			"magFilter":9729,
			"minFilter":9987
		}
	],
	"buffers":[
		{
			"byteLength":1073912,
			"uri":"data:application/octet-stream;base64,"
		}
	]
}
